<svg width="21" height="19" viewBox="0 0 21 19" fill="none" xmlns="http://www.w3.org/2000/svg">
<path fill-rule="evenodd" clip-rule="evenodd" d="M5.49421 2.03278C5.91291 1.27181 6.36839 0.763119 7.04428 0.494103C8.28283 0.00162372 12.7187 0.00162372 13.9562 0.494201C14.6318 0.763072 15.0874 1.27168 15.5064 2.03249L15.9775 2.93577C15.9883 2.95367 15.9982 2.96941 16.0071 2.98295L16.0471 3.03764C16.2617 3.2715 16.6209 3.41278 16.8579 3.41278C19.0996 3.41278 20.9173 5.23006 20.9173 7.47111V13.5076C20.9173 16.3661 18.5988 18.6847 15.7402 18.6847H5.26107C2.4018 18.6847 0.0839844 16.3665 0.0839844 13.5076V7.47111C0.0839844 5.23006 1.90167 3.41278 4.14336 3.41278C4.37958 3.41278 4.73928 3.2713 4.95424 3.03764C4.95853 3.03296 4.96413 3.026 4.97091 3.01677L5.02448 2.9346L5.49421 2.03278ZM14.1378 2.7863C13.8774 2.31355 13.6421 2.05089 13.3784 1.94594L13.2541 1.90462C12.1821 1.60161 8.45316 1.61538 7.62185 1.94594C7.35829 2.05084 7.12324 2.31335 6.86317 2.78601L6.46227 3.56111L6.3636 3.73968C6.28123 3.87669 6.19884 3.99235 6.10476 4.09485C5.5772 4.66829 4.79674 4.97528 4.14336 4.97528L3.97243 4.98104C2.67331 5.06888 1.64648 6.1505 1.64648 7.47111V13.5076C1.64648 15.5036 3.2648 17.1222 5.26107 17.1222H15.7402C17.7358 17.1222 19.3548 15.5032 19.3548 13.5076V7.47111C19.3548 6.09308 18.2368 4.97528 16.8579 4.97528L16.6766 4.96769C16.0635 4.91725 15.3749 4.61607 14.8959 4.09416C14.8031 3.99301 14.7211 3.87818 14.6392 3.74233C14.6275 3.72284 14.6129 3.69718 14.5961 3.66683L14.4752 3.44001L14.1378 2.7863Z" fill="#677487"/>
<path d="M16.2346 5.85413C16.8099 5.85413 17.2763 6.3205 17.2763 6.89579C17.2763 7.43 16.8742 7.87028 16.3561 7.93045L16.2346 7.93746C15.65 7.93746 15.1836 7.47109 15.1836 6.89579C15.1836 6.36159 15.5857 5.92131 16.1038 5.86113L16.2346 5.85413Z" fill="#677487"/>
<path fill-rule="evenodd" clip-rule="evenodd" d="M6.40723 10.675C6.40723 8.41434 8.2393 6.58228 10.4999 6.58228C12.7606 6.58228 14.5926 8.41434 14.5926 10.675C14.5926 12.9356 12.7606 14.7677 10.4999 14.7677C8.2393 14.7677 6.40723 12.9356 6.40723 10.675ZM13.0301 10.675C13.0301 9.27729 11.8976 8.14478 10.4999 8.14478C9.10224 8.14478 7.96973 9.27729 7.96973 10.675C7.96973 12.0727 9.10224 13.2052 10.4999 13.2052C11.8976 13.2052 13.0301 12.0727 13.0301 10.675Z" fill="#677487"/>
</svg>
