<svg width="32" height="32" viewBox="0 0 32 32" fill="none" xmlns="http://www.w3.org/2000/svg">
<path fill-rule="evenodd" clip-rule="evenodd" d="M18.4525 7.17438L15.9947 9.63219C15.6041 10.0227 14.971 10.0227 14.5804 9.63219C14.1899 9.24167 14.1899 8.6085 14.5804 8.21798L17.0554 5.74298C17.0664 5.73207 17.0775 5.72141 17.0889 5.71101C18.3269 4.58266 19.952 3.9747 21.6266 4.01347C23.3012 4.05223 24.8965 4.73475 26.0809 5.91919C27.2654 7.10362 27.9479 8.69889 27.9867 10.3735C28.0254 12.0481 27.4175 13.6732 26.2891 14.9112C26.2783 14.9231 26.2673 14.9346 26.2559 14.9459L22.721 18.4684C22.7205 18.4688 22.7201 18.4692 22.7197 18.4697C22.1172 19.0741 21.4014 19.5536 20.6133 19.8809C19.8246 20.2085 18.979 20.3771 18.125 20.3771C17.2711 20.3771 16.4255 20.2085 15.6368 19.8809C14.8481 19.5534 14.1319 19.0734 13.5291 18.4684C13.1393 18.0771 13.1405 17.444 13.5318 17.0542C13.923 16.6644 14.5562 16.6655 14.946 17.0568C15.3629 17.4753 15.8583 17.8073 16.4039 18.0339C16.9494 18.2605 17.5343 18.3771 18.125 18.3771C18.7158 18.3771 19.3007 18.2605 19.8462 18.0339C20.3918 17.8073 20.8872 17.4753 21.3041 17.0568L21.3067 17.0542L24.8263 13.547C25.5983 12.6914 26.0139 11.5725 25.9872 10.4198C25.9603 9.25945 25.4874 8.15409 24.6667 7.3334C23.846 6.51271 22.7407 6.03979 21.5804 6.01293C20.4274 5.98624 19.3082 6.40202 18.4525 7.17438Z" fill="#A6A6A6"/>
<path fill-rule="evenodd" clip-rule="evenodd" d="M13.8751 13.623C13.2844 13.623 12.6995 13.7397 12.1539 13.9662C11.6084 14.1928 11.1129 14.5249 10.696 14.9433L10.6934 14.9459L10.6934 14.9459L7.17381 18.4531C6.40181 19.3088 5.98624 20.4277 6.01293 21.5804C6.03979 22.7407 6.51271 23.8461 7.3334 24.6667C8.15409 25.4874 9.25945 25.9604 10.4198 25.9872C11.5728 26.0139 12.6919 25.5981 13.5477 24.8258L16.0055 22.368C16.396 21.9774 17.0292 21.9774 17.4197 22.368C17.8102 22.7585 17.8102 23.3916 17.4197 23.7822L14.9447 26.2572C14.9338 26.2681 14.9226 26.2787 14.9112 26.2891C13.6732 27.4175 12.0481 28.0255 10.3735 27.9867C8.69889 27.9479 7.10362 27.2654 5.91919 26.081C4.73475 24.8965 4.05223 23.3013 4.01347 21.6267C3.9747 19.9521 4.58266 18.3269 5.71101 17.0889C5.72181 17.0771 5.73288 17.0655 5.74423 17.0542L9.27916 13.5318C9.27961 13.5313 9.28006 13.5309 9.28051 13.5304C9.88296 12.9261 10.5987 12.4465 11.3868 12.1192C12.1755 11.7917 13.0211 11.623 13.8751 11.623C14.7291 11.623 15.5747 11.7917 16.3633 12.1192C17.152 12.4468 17.8683 12.9268 18.471 13.5318C18.8608 13.923 18.8596 14.5562 18.4684 14.946C18.0771 15.3358 17.444 15.3346 17.0542 14.9433C16.6372 14.5249 16.1418 14.1928 15.5963 13.9662C15.0507 13.7397 14.4658 13.623 13.8751 13.623Z" fill="#A6A6A6"/>
</svg>
