<svg width="20" height="21" viewBox="0 0 20 21" fill="none" xmlns="http://www.w3.org/2000/svg">
<path d="M13.5516 6.94478C13.6062 6.99941 13.6496 7.06428 13.6792 7.13568C13.7088 7.20709 13.7241 7.28362 13.7241 7.36092C13.7241 7.43821 13.7088 7.51475 13.6792 7.58615C13.6496 7.65756 13.6062 7.72243 13.5516 7.77705L7.27689 14.0509C7.16633 14.1598 7.01722 14.2206 6.86203 14.2201C6.70685 14.2195 6.55816 14.1577 6.44836 14.048C6.33857 13.9384 6.27655 13.7898 6.27583 13.6346C6.27511 13.4795 6.33574 13.3303 6.44451 13.2196L12.7192 6.94576C12.7737 6.89101 12.8386 6.84755 12.91 6.81787C12.9813 6.78819 13.0579 6.77286 13.1352 6.77277C13.2125 6.77268 13.289 6.78782 13.3605 6.81734C13.4319 6.84686 13.4969 6.89016 13.5516 6.94478ZM18.4487 2.04823C17.4549 1.05679 16.1084 0.5 14.7045 0.5C13.3007 0.5 11.9541 1.05679 10.9603 2.04823L8.0122 4.994C7.90182 5.10437 7.83981 5.25406 7.83981 5.41014C7.83981 5.56622 7.90182 5.71591 8.0122 5.82627C8.12258 5.93664 8.27228 5.99864 8.42839 5.99864C8.58449 5.99864 8.73419 5.93664 8.84457 5.82627L11.7927 2.87951C12.5651 2.10721 13.6127 1.67334 14.705 1.67334C15.7973 1.67334 16.8449 2.10721 17.6173 2.87951C18.3897 3.65181 18.8237 4.69928 18.8237 5.79147C18.8237 6.88367 18.3897 7.93113 17.6173 8.70343L14.6682 11.6512C14.6136 11.7058 14.5702 11.7707 14.5407 11.8421C14.5111 11.9135 14.4959 11.99 14.4959 12.0673C14.4959 12.1446 14.5111 12.2211 14.5407 12.2925C14.5702 12.3639 14.6136 12.4288 14.6682 12.4834C14.7229 12.5381 14.7878 12.5814 14.8592 12.611C14.9306 12.6406 15.0071 12.6558 15.0844 12.6558C15.1617 12.6558 15.2383 12.6406 15.3097 12.611C15.3811 12.5814 15.446 12.5381 15.5006 12.4834L18.4487 9.5357C18.9405 9.04412 19.3307 8.46048 19.5968 7.81812C19.863 7.17577 20 6.48727 20 5.79196C20 5.09665 19.863 4.40816 19.5968 3.7658C19.3307 3.12344 18.9405 2.5398 18.4487 2.04823ZM11.1505 15.1685L8.2024 18.1172C7.43 18.8895 6.38241 19.3233 5.29007 19.3233C4.19774 19.3233 3.15014 18.8895 2.37774 18.1172C1.60534 17.3449 1.17142 16.2974 1.17142 15.2052C1.17142 14.113 1.60534 13.0656 2.37774 12.2933L5.32487 9.34552C5.43525 9.23515 5.49727 9.08547 5.49727 8.92939C5.49727 8.7733 5.43525 8.62362 5.32487 8.51325C5.2145 8.40289 5.06479 8.34088 4.90869 8.34088C4.75259 8.34088 4.60288 8.40289 4.4925 8.51325L1.55125 11.461C0.558093 12.4539 9.19328e-05 13.8006 1.13587e-08 15.2049C-9.19101e-05 16.6091 0.557733 17.9559 1.55076 18.9489C2.54379 19.942 3.89067 20.4999 5.29512 20.5C6.69956 20.5001 8.04652 19.9423 9.03968 18.9494L11.9878 16.0007C12.0424 15.9461 12.0858 15.8812 12.1154 15.8098C12.145 15.7384 12.1602 15.6619 12.1602 15.5846C12.1602 15.5073 12.145 15.4308 12.1154 15.3594C12.0858 15.288 12.0424 15.2231 11.9878 15.1685C11.9331 15.1138 11.8682 15.0705 11.7968 15.0409C11.7254 15.0113 11.6489 14.9961 11.5716 14.9961C11.4943 14.9961 11.4178 15.0113 11.3464 15.0409C11.275 15.0705 11.2101 15.1138 11.1554 15.1685H11.1505Z" fill="#677487"/>
</svg>
