<svg width="42" height="43" viewBox="0 0 42 43" fill="none" xmlns="http://www.w3.org/2000/svg">
<path d="M16.0302 19.5229C15.8552 19.5054 15.6452 19.5054 15.4527 19.5229C11.2877 19.3829 7.98022 15.9704 7.98022 11.7704C7.98022 7.48287 11.4452 4.00037 15.7502 4.00037C20.0377 4.00037 23.5202 7.48287 23.5202 11.7704C23.5027 15.9704 20.1952 19.3829 16.0302 19.5229Z" stroke="#00AC4F" stroke-width="2.625" stroke-linecap="round" stroke-linejoin="round"/>
<path d="M28.7171 7.49963C32.1121 7.49963 34.8421 10.2471 34.8421 13.6246C34.8421 16.9321 32.2171 19.6271 28.9446 19.7496C28.8046 19.7321 28.6471 19.7321 28.4896 19.7496" stroke="#00AC4F" stroke-width="2.625" stroke-linecap="round" stroke-linejoin="round"/>
<path d="M7.2805 25.9796C3.0455 28.8146 3.0455 33.4346 7.2805 36.2521C12.093 39.4721 19.9855 39.4721 24.798 36.2521C29.033 33.4171 29.033 28.7971 24.798 25.9796C20.003 22.7771 12.1105 22.7771 7.2805 25.9796Z" stroke="#00AC4F" stroke-width="2.625" stroke-linecap="round" stroke-linejoin="round"/>
<path d="M32.0947 35.5004C33.3547 35.2379 34.5447 34.7304 35.5247 33.9779C38.2547 31.9304 38.2547 28.5529 35.5247 26.5054C34.5622 25.7704 33.3897 25.2804 32.1472 25.0004" stroke="#00AC4F" stroke-width="2.625" stroke-linecap="round" stroke-linejoin="round"/>
</svg>
